<?xml version="1.0" encoding="UTF-8"?>
<svg width="472px" height="399px" viewBox="0 0 472 399" version="1.1" xmlns="http://www.w3.org/2000/svg" xmlns:xlink="http://www.w3.org/1999/xlink">
    <title>People Eating At Restaurant 4</title>
    <defs>
        <path d="M56.9485714,44.469309 C56.8086253,46.0361572 56.7137466,47.6050039 56.6781671,49.1738506 L31.3640539,49.1738506 C31.329186,47.6050039 31.2352561,46.0361572 31.0931752,44.469309 L56.9485714,44.469309 Z M72.1884636,73.7357942 C64.8875472,55.6790684 66.5289488,35.5438705 76.6904582,18.4964026 L85.2224259,4.18092645 L75.3621563,0.00799412324 L66.8301887,14.3254688 C62.3566577,21.8279535 59.3537466,29.8600488 57.8309434,38.076009 L30.211752,38.076009 C28.6894232,29.8600488 25.6855633,21.8279535 21.2134555,14.3254688 L12.6805391,0.00799412324 L2.82074394,4.18092645 L11.3536604,18.4964026 C21.5144582,35.5438705 23.1549111,55.6790684 15.8542318,73.7357942 L0.178371968,110.115051 L11.4981132,110.115051 L26.2984798,76.7335904 C29.0732075,69.8706356 30.6996658,62.7398777 31.2060809,55.5671506 L56.8370889,55.5671506 C57.3423181,62.7398777 58.9694879,69.8706356 61.74469,76.7335904 L76.5457682,110.115051 L87.8647978,110.115051 L72.1884636,73.7357942 L72.1884636,73.7357942 Z" id="path-1"></path>
        <linearGradient x1="49.9997295%" y1="66.2286274%" x2="49.9997295%" y2="32.1662976%" id="linearGradient-3">
            <stop stop-color="#AA7888" offset="0%"></stop>
            <stop stop-color="#855263" offset="100%"></stop>
        </linearGradient>
        <path d="M68.3783662,0.0570202703 C68.3783662,0.0570202703 62.6663662,20.49575 60.6645634,21.1856757 C58.6627606,21.8773649 28.6451831,24.3619595 22.476507,24.0856757 C16.3054648,23.8093919 6.6324507,22.8864865 2.96484507,24.1072297 C-0.705126761,25.3299324 -0.298140845,27.7302703 1.53802817,28.0065541 C3.37183099,28.2828378 69.3366761,30.1619595 71.1704789,27.814527 C73.0066479,25.4670946 83.8461972,5.45023649 83.8461972,5.45023649 L67.668507,0.0570202703" id="path-4"></path>
        <linearGradient x1="-0.000780730623%" y1="50.0008408%" x2="99.9980206%" y2="50.0008408%" id="linearGradient-6">
            <stop stop-color="#F0C8C9" offset="0%"></stop>
            <stop stop-color="#E691A5" offset="100%"></stop>
        </linearGradient>
        <path d="M33.2343689,0.0777278912 C32.6896602,2.01402041 28.5912621,16.4080816 26.3363107,20.2230612 C22.7778641,20.2350952 19.2217961,20.2471293 15.6657282,20.2593605 C12.0834951,20.2713946 7.89470874,19.8004898 4.45757282,20.8239728 C2.35009709,21.4521088 0.371067961,22.8784354 0.0737378641,24.8078231 C-0.197427184,26.5517687 0.982378641,28.2029932 2.90669903,28.7908844 C2.91145631,28.8086395 2.91383495,28.8283673 2.91859223,28.8480952 C2.98519417,28.8480952 3.04941748,28.850068 3.11364078,28.850068 C3.27300971,28.8914966 3.43475728,28.9270068 3.60364078,28.9546259 C3.91762136,29.0019728 4.19354369,28.9605442 4.42427184,28.8638776 C20.5395631,29.0335374 35.2728641,28.8717687 36.1030097,27.8064626 C37.948835,25.4430612 48.8453883,5.29003401 48.8453883,5.29003401 L33.2343689,0.0777278912" id="path-7"></path>
        <linearGradient x1="24.3429033%" y1="54.8098027%" x2="70.7521305%" y2="49.4215801%" id="linearGradient-9">
            <stop stop-color="#6DC1B5" offset="0%"></stop>
            <stop stop-color="#56B99F" offset="100%"></stop>
        </linearGradient>
        <path d="M31.7012143,9.12198068 C31.7012143,9.12198068 25.7235,60.2431643 30.0417857,67.1658454 C34.3600714,74.0905314 32.3682857,82.8676812 32.3682857,82.8676812 L0.139071429,82.5509179 C0.139071429,82.5509179 8.44564286,54.3088647 8.778,53.0357971 C9.11035714,51.7647343 19.5760714,0.192463768 19.5760714,0.192463768 L31.7012143,9.12198068" id="path-10"></path>
        <linearGradient x1="50.2741709%" y1="89.9097919%" x2="52.8577994%" y2="17.4826616%" id="linearGradient-12">
            <stop stop-color="#FFFFFE" offset="0%"></stop>
            <stop stop-color="#CCC9DB" offset="100%"></stop>
        </linearGradient>
        <path d="M0.0375757576,19.5722772 L30.3706061,19.8693069 C30.3706061,19.8693069 32.3550758,11.2 28.0526515,4.36039604 C27.5195455,3.51485149 27.1461364,2.0019802 26.897197,0.00198019802 L9.10742424,1.43366337 L0.0375757576,19.5722772" id="path-13"></path>
        <linearGradient x1="97.829543%" y1="50.0050832%" x2="52.2546749%" y2="50.0050832%" id="linearGradient-15">
            <stop stop-color="#373880" offset="0%"></stop>
            <stop stop-color="#31306F" offset="100%"></stop>
        </linearGradient>
        <path d="M73.7990038,11.6657585 C73.7990038,11.6657585 76.9726437,17.6538771 76.3265134,20.1863008 C75.6803831,22.7189237 64.2543295,40.1935636 64.2543295,42.0885 C64.2543295,43.9834364 71.1622222,61.3877754 73.5044444,67.0022839 C75.8490421,72.6169915 83.7166284,90.7219492 78.8635249,91.5643644 C74.008046,92.4067797 48.0583142,93.1097881 40.523295,93.9502119 C32.9906513,94.7926271 24.4508046,95.3542373 23.9495785,100.968347 C23.445977,106.582458 26.6267433,169.60428 25.6242912,172.412331 C24.6194636,175.21839 16.7495019,181.39411 12.8988506,182.097119 C9.04819923,182.798136 1.51555556,183.359746 0.510727969,185.044576 C-0.494099617,186.727415 0.510727969,187.115763 5.3662069,187.553898 C10.2216858,187.992034 39.5184674,187.958178 40.8582375,187.553898 C42.1980077,187.149619 44.1363985,178.026441 40.6895785,172.551737 C37.2451341,167.079025 41.6944061,119.917712 43.7040613,115.426822 C44.9155556,112.720339 108.143678,118.075551 116.700153,112.479364 C123.562912,107.986483 126.577395,89.0391102 120.717088,74.3914407 C114.714253,59.3860932 110.21272,31.1404873 106.989195,25.4558771 C105.478391,22.7908178 97.0739464,18.0478008 94.7483525,15.4357161 C92.4227586,12.8236314 87.0945594,0.133033898 87.0945594,0.133033898 L73.7990038,11.6657585" id="path-16"></path>
        <linearGradient x1="0.000418576078%" y1="50.0002816%" x2="100.00059%" y2="50.0002816%" id="linearGradient-18">
            <stop stop-color="#F0C8C9" offset="0%"></stop>
            <stop stop-color="#E691A5" offset="100%"></stop>
        </linearGradient>
        <path d="M19.1635645,10.2680556 C19.1635645,10.2680556 30.252361,17.8234127 32.7363266,17.8234127 C35.2202923,17.8234127 65.1925845,21.1785714 71.3195587,20.4801587 C77.446533,19.7797619 77.2096963,19.9484127 80.3444928,21.9563492 C83.4790544,23.9623016 81.5864756,25.1170635 77.6121777,24.9781746 C73.6378797,24.8373016 30.4797994,24.8551587 29.952086,24.9742063 C29.4243725,25.0952381 10.7123954,21.4583333 3.26073352,14.7464286 C-4.19092837,8.0343254 4.25436676,0.0634920635 4.25436676,0.0634920635 L19.1635645,10.2680556" id="path-19"></path>
        <linearGradient x1="100.000015%" y1="49.9997155%" x2="57.4420113%" y2="49.9997155%" id="linearGradient-21">
            <stop stop-color="#F0C8C9" offset="0%"></stop>
            <stop stop-color="#E691A5" offset="100%"></stop>
        </linearGradient>
        <path d="M47.80152,19.0674603 C40.632,18.4265873 34.51416,17.8234127 33.43896,17.8234127 C30.90192,17.8234127 19.57488,10.2680556 19.57488,10.2680556 L4.34568,0.0634920635 C4.34568,0.0634920635 -4.28088,8.0343254 3.33072,14.7464286 C10.94232,21.4583333 30.05592,25.0952381 30.59496,24.9742063 C30.80976,24.9265873 38.41512,24.8928571 47.74488,24.8769841 C47.89488,22.8849206 47.86104,20.6547619 47.80152,19.0674603" id="path-22"></path>
        <linearGradient x1="103.726235%" y1="50.0012945%" x2="42.9378279%" y2="50.0012945%" id="linearGradient-24">
            <stop stop-color="#F6D745" offset="0%"></stop>
            <stop stop-color="#EEAF32" offset="100%"></stop>
        </linearGradient>
        <path d="M1.37973427,1.65781327 C1.37973427,1.65781327 4.56360839,8.10995086 3.89335664,9.9329484 C3.2231049,11.7559459 -1.13388811,22.4172973 0.374475524,30.8317445 C1.88236364,39.2481818 8.9206014,55.7984521 5.40148252,59.7270516 C1.88236364,63.6536609 0.54186014,68.1414988 4.89885315,69.2639558 C9.25560839,70.3864128 15.4557343,72.6313268 17.8017343,77.2604668 C20.1477343,81.8876167 26.0126154,80.9064619 29.1964895,80.9064619 C32.3803636,80.9064619 37.4073706,79.4337346 30.3693706,75.0155528 C25.8117063,72.1536855 18.0005035,66.4598034 16.995007,60.1469779 C15.9702517,53.714742 15.4557343,7.96864865 15.4557343,7.96864865 L7.57986014,0.115429975 L1.37973427,1.65781327" id="path-25"></path>
        <linearGradient x1="50.1200109%" y1="78.2824848%" x2="48.2493016%" y2="28.5968651%" id="linearGradient-27">
            <stop stop-color="#F0C8C9" offset="0%"></stop>
            <stop stop-color="#E691A5" offset="100%"></stop>
        </linearGradient>
        <path d="M53.8423226,0.0716848989 C53.8423226,0.0716848989 52.4509066,5.90020333 48.4732411,7.53009156 C42.0698014,10.1542354 32.0072869,23.1697111 29.7618115,31.9865565 C27.5165722,40.8034019 22.901017,52.139346 19.2834771,56.9686445 C15.6659372,61.7959572 3.19157216,66.2042806 0.572047538,77.5408205 C-2.04747708,88.8773603 5.68649236,95.2793579 18.4103022,94.7551249 C31.1341121,94.2289061 70.1784805,92.2352319 73.4217351,93.704673 C76.6649898,95.1741141 77.5384007,104.620238 80.4073701,110.289501 C83.2763396,115.956778 96.3744346,124.878668 100.740309,131.072164 C105.106419,137.263674 110.220864,145.661332 109.347689,148.600214 C108.474514,151.539096 106.478484,154.898954 110.71999,155.842176 C114.961024,156.787384 120.824039,158.362069 121.946659,160.147241 C123.069514,161.930428 124.233669,166.513496 132.217083,166.829227 C133.848504,166.892771 135.146703,166.930499 136.179409,166.950982 C138.235618,166.990071 139.542076,165.131427 138.534385,163.622271 C137.480912,162.0456 135.933032,160.3756 133.904435,159.863282 C130.034382,158.886302 117.830229,145.242342 117.455944,143.876159 C117.081659,142.511962 87.9752003,80.8291914 82.4864703,79.3597503 C76.9977402,77.8903092 44.1073667,75.755648 44.2319711,73.0272533 C44.3568115,70.2988585 53.4628455,50.4594174 56.5814958,49.516195 C59.700146,48.5707883 75.6141121,43.2851688 75.0434805,36.8148621 C74.2550272,27.8745042 70.0121053,14.6326552 66.0202801,11.6937729 C62.028691,8.75469203 64.565146,6.79556956 66.3114958,1.4424352 L53.8423226,0.0716848989" id="path-28"></path>
        <linearGradient x1="57.9784211%" y1="31.7481547%" x2="64.2932845%" y2="-1.1130518%" id="linearGradient-30">
            <stop stop-color="#F0C8C9" offset="0%"></stop>
            <stop stop-color="#E691A5" offset="100%"></stop>
        </linearGradient>
        <path d="M22.2481928,0.0950585106 C22.2481928,0.0950585106 6.69156627,-0.399521277 4.05542169,13.7529787 C3.90361446,14.5756383 3.77831325,15.3754681 3.6746988,16.1567979 C2.65301205,18.2146277 -0.414457831,24.5197819 0.214457831,24.9494149 C0.845783133,25.3806223 2.94457831,25.590617 3.60240964,25.6469043 C4.51807229,32.4021596 7.47710843,36.2269362 9.5373494,36.732734 C12.6,37.4845426 35.2963855,36.0002128 38.8987952,21.6148883 C42.5036145,7.22956383 36.9807229,0.324734043 22.2481928,0.0950585106" id="path-31"></path>
        <linearGradient x1="30.8916348%" y1="65.4492134%" x2="72.3548336%" y2="31.3866595%" id="linearGradient-33">
            <stop stop-color="#F0C8C9" offset="0%"></stop>
            <stop stop-color="#E691A5" offset="100%"></stop>
        </linearGradient>
        <path d="M26.3975758,1.70925373 C21.6290909,0.141094527 19.1490909,0.0431840796 13.9684848,0.419303483 C12.6036364,0.51840796 11.2848485,0.733134328 10.0290909,1.06348259 C9.3430303,1.2439801 8.59636364,1.2199005 7.95636364,0.951044776 C7.95151515,0.949452736 7.94909091,0.948059701 7.94424242,0.946666667 C5.97333333,0.118208955 3.91030303,-0.51761194 1.77939394,0.821094527 C-0.555151515,2.28935323 -0.283636364,6.17472637 1.84727273,7.9160199 C2.0169697,8.05373134 2.15757576,8.21253731 2.26909091,8.38487562 C3.6969697,10.5818905 4.63515152,9.53930348 7.46666667,9.70845771 C9.64606061,9.83880597 11.5345455,10.159801 13.1248485,11.4746269 C14.6133333,12.7058706 15.7987879,14.3060697 16.8387879,15.8061692 C19.0763636,19.0290547 19.8715152,22.8465672 16.6254545,25.8284577 C15.1975758,27.1410945 13.1587879,27.9536318 11.0375758,28.160796 C8.87030303,28.3725373 6.92606061,27.6362189 4.79272727,27.6109453 C3.27272727,27.5930348 2.09212121,27.4899502 1.85454545,28.7733333 C1.56121212,30.3715423 2.04848485,31.2033831 2.81939394,32.4975124 C3.86909091,34.2541294 4.65939394,36.0583085 5.86181818,37.7454726 C6.68848485,38.9024876 6.92848485,39.2155224 8.61818182,39.6376119 C10.5648485,40.1245771 12.4145455,39.919005 14.0412121,39.1804975 C16.0048485,38.2901493 17.2412121,38.241194 19.0181818,37.1132338 C22.1042424,35.1530348 24.6545455,32.6220896 25.7066667,29.4929353 C26.3757576,27.5050746 26.3806061,25.4477612 26.710303,23.4177114 C26.8193939,22.7544279 26.950303,21.7247761 27.7381818,21.358607 C28.8678788,20.8350249 29.9224242,22.0977114 30.2981818,22.8202985 C31.9515152,26.0041791 30.5818182,30.1464677 34.6472727,32.3560199 C35.4181818,32.7753234 36.790303,32.4437811 36.6036364,31.5168159 C35.7284848,27.1406965 39.2072727,23.3822886 39.6266667,19.2167164 C40.0339394,15.1870647 39.7309091,10.6718408 36.7830303,7.48199005 C33.8084848,4.2640796 30.889697,3.18606965 26.3975758,1.70925373" id="path-34"></path>
        <linearGradient x1="-0.00149573169%" y1="50.0000847%" x2="99.9992071%" y2="50.0000847%" id="linearGradient-36">
            <stop stop-color="#373880" offset="0%"></stop>
            <stop stop-color="#333377" offset="100%"></stop>
        </linearGradient>
        <path d="M28.7241805,12.6564497 C28.9209023,10.069432 28.3729248,7.92119527 27.4753233,6.16586982 C25.1650075,1.64789349 19.3554211,-0.744378698 13.7726241,0.337183432 C-2.57416541,3.50360947 -0.657293233,16.2719172 1.58915789,23.5487219 C4.09945865,31.6795503 17.5040451,34.0690059 22.7763759,33.8026391 C26.8082406,33.5988402 27.8482556,29.0997751 28.2312105,23.4630178 C28.9831353,23.408497 30.8387068,23.0336923 30.8941805,22.3486627 C30.9449925,21.7247929 29.1584135,18.1958343 28.5041504,16.927574 C28.5556617,15.4883077 28.6183609,14.0504497 28.7241805,12.6564497" id="path-37"></path>
        <linearGradient x1="80.1499511%" y1="56.3536778%" x2="42.4489343%" y2="45.7645254%" id="linearGradient-39">
            <stop stop-color="#F0C8C9" offset="0%"></stop>
            <stop stop-color="#E691A5" offset="100%"></stop>
        </linearGradient>
        <path d="M96.724378,46.9503583 C96.7425951,46.9362215 96.7629415,46.9220847 96.7806854,46.9099674 C90.7728366,35.4086645 85.2253829,25.8239088 82.9248268,24.6606515 C82.8230951,24.5435179 82.6825634,24.4405212 82.4909293,24.3577199 C77.500161,22.2210423 71.6300049,21.5788274 66.1883049,20.7609121 C58.7966683,19.6501629 49.1364146,17.9436482 47.401061,10.5339414 C47.367939,10.3925733 47.3073732,10.2774593 47.2335585,10.1764821 C47.7578317,8.98697068 48.3272927,7.7429316 48.9230146,6.49485342 C38.6561561,5.01250814 27.0847659,2.04175896 20.4066707,0.195895765 C20.0411463,0.783583062 19.6817732,1.32078176 19.3318634,1.79537459 C15.7052463,6.70488599 3.19958049,11.1882736 0.573482927,22.7178502 C-2.05261463,34.2474267 5.70076098,40.7584365 18.4564976,40.2252769 C26.5616756,39.8859935 45.3176902,38.9428664 58.7529,38.6843648 C64.6486073,43.6342671 64.6859878,51.8760261 63.3663146,58.6354397 C63.2243634,59.3644951 63.9182683,60.2510749 64.9048293,59.9481433 C68.678839,58.7970033 71.6910439,63.1147883 75.7943805,61.4365472 C78.8416,60.1904886 79.8359683,57.3530293 83.5427878,57.0601954 C86.442378,56.8299674 89.3064805,56.9773941 91.3063366,54.8427362 C93.0670049,52.9625407 93.2832439,49.7272313 96.036861,48.6528339 C96.4669732,48.4852117 96.6557683,48.2065147 96.6780073,47.9136808 C96.8552098,47.6269055 96.8987415,47.279544 96.724378,46.9503583" id="path-40"></path>
        <linearGradient x1="48.2289325%" y1="47.1115182%" x2="44.2474787%" y2="30.7187377%" id="linearGradient-42">
            <stop stop-color="#FFFFFE" offset="0%"></stop>
            <stop stop-color="#CCC9DB" offset="100%"></stop>
        </linearGradient>
        <path d="M56.7621074,33.5877476 C55.9751777,24.5540065 51.7404545,11.1738447 47.756343,8.20426537 C47.7205413,8.17737864 47.6920413,8.15169579 47.6571818,8.12521036 C49.8406116,6.98814239 49.2211488,3.21176052 45.8426033,2.91721036 C41.3999008,2.52955987 37.0905124,1.58591586 32.9191488,0.238368932 C29.8244256,-0.761255663 28.1273802,2.38730097 29.488314,4.35424595 C23.0892397,7.65950809 13.7228678,20.1427767 11.567938,28.7090097 C9.32703719,37.6179482 4.72040083,49.0722977 1.10985124,53.9520388 C0.852644628,54.2991586 0.545975207,54.6442718 0.205859504,54.9893851 C6.33971901,57.4994822 19.4838719,62.3130097 29.0725909,61.8615534 C32.0415372,55.2020712 36.3747149,47.0216828 38.3357975,46.4217476 C41.4484215,45.466466 57.3316364,40.1256375 56.7621074,33.5877476" id="path-43"></path>
        <linearGradient x1="39.2967029%" y1="42.16371%" x2="77.6889463%" y2="90.3661292%" id="linearGradient-45">
            <stop stop-color="#F6D745" offset="0%"></stop>
            <stop stop-color="#EEAF32" offset="100%"></stop>
        </linearGradient>
        <path d="M2.70117187,1.7854 C2.70117187,1.7854 10.134375,-3.289 15.255,3.7588 C20.3758594,10.8066 34.2510937,29.5538 39.3717187,30.2586 C44.4923438,30.9634 72.4082812,15.7402 75.0513281,13.3438 C77.694375,10.9476 84.9623437,10.3838 86.28375,11.2294 C87.6051562,12.0752 91.7348437,18.7002 89.0917969,20.2506 C86.4489844,21.8012 80.1719531,22.0832 78.3548437,21.3784 C76.5379687,20.6736 48.6220313,44.496 37.0591406,41.676 C26.1602344,39.018 -0.767578125,12.3572 0.058359375,7.7056 C0.8840625,3.0542 2.70117187,1.7854 2.70117187,1.7854" id="path-46"></path>
        <linearGradient x1="74.7199998%" y1="41.5633826%" x2="44.7636854%" y2="46.8728601%" id="linearGradient-48">
            <stop stop-color="#F0C8C9" offset="0%"></stop>
            <stop stop-color="#E691A5" offset="100%"></stop>
        </linearGradient>
        <path d="M33.6291647,15.0028 C32.7315059,15.276 31.7438882,15.4484 30.7545824,15.6312 C31.1334706,15.5006 31.5123588,15.3698 31.8893176,15.2356 C33.5695941,14.6366 35.2580706,14.0064 36.7352765,13.0992 C38.0747706,12.2764 39.2073353,11.2492 39.9460588,10.0678 C39.1714,12.431 36.4210235,14.1534 33.6291647,15.0028 Z M25.5244294,35.7438 C25.1467471,37.0896 25.1667647,38.6236 26.0366882,39.7544 C23.3188706,37.6994 25.7947882,32.7666 27.1157118,29.7064 C27.0713353,31.7336 26.0979471,33.7018 25.5244294,35.7438 Z M13.489,42.3748 C11.4107824,42.7862 9.13841765,42.4838 7.30451176,41.5808 C6.03688824,40.9568 4.81774118,39.9118 4.34720588,38.7218 C5.12717059,39.3038 5.98382941,39.8084 6.76982353,40.2256 C8.39969412,41.0906 10.1626941,41.6416 12.1159824,41.3722 C13.1889765,41.2244 14.1751471,40.81 15.2358412,40.6294 C16.2429941,40.4578 17.1348647,40.5588 17.9828412,40.7944 C16.3606882,41.226 14.6411,42.1468 13.489,42.3748 Z M0.567970588,25.4562 C0.444247059,23.323 2.89339412,22.252 4.70462941,21.139 C3.00192353,22.7824 0.601011765,24.6666 2.61869412,26.8754 C3.06872941,27.3682 3.68734706,27.73 4.19164706,28.1794 C4.57053529,28.5172 4.78542353,28.8598 4.87465882,29.2014 C3.11792941,28.0936 0.697,27.6734 0.567970588,25.4562 Z M40.1189824,5.1196 C36.8657529,0.7846 28.8244471,-0.3112 23.2158882,0.3738 C16.3659941,1.2104 8.60686471,4.9346 7.23288235,11.0108 C6.56265294,13.9746 7.38771765,17.1928 5.72625294,19.8736 C4.99765882,20.4106 4.22854706,20.9148 3.41867647,21.392 C2.05192941,22.1972 0.569658824,23.0822 0.161347059,24.5152 C-0.196317647,25.7712 0.343194118,27.1168 1.50614706,27.9626 C2.26537059,28.5148 3.85858235,29.0616 4.9077,29.7854 C4.8298,30.3654 4.43837059,30.9326 3.90054706,31.4572 C3.06487059,32.272 2.09871765,32.994 1.84282941,34.0934 C1.47551765,35.6704 2.37510588,37.0444 3.66829412,38.174 C3.99653529,40.3228 6.68179412,42.106 9.12804706,42.6866 C10.8748882,43.1012 12.7905529,43.0804 14.5017,42.5618 C15.5843412,42.2334 17.2590706,41.2842 18.7348294,41.0386 C19.4672824,41.3086 20.1821294,41.6524 20.9273647,41.9794 C23.0863765,42.9268 27.3180588,43.623 28.2786647,41.0176 C28.3172529,40.9136 28.2979588,40.8258 28.2528588,40.7518 C28.208,40.6546 28.1153882,40.5728 27.9525941,40.5414 C27.8648059,40.5244 27.7869059,40.5014 27.7032176,40.4818 C24.4671118,39.008 26.1543824,35.526 26.9362765,33.2796 C27.4680706,31.751 27.8076471,30.1624 27.5614059,28.608 C27.5937235,28.5194 27.6248353,28.4322 27.6518471,28.3502 C28.6532118,25.3024 28.3802,22.882 26.9263882,20.032 C26.6017647,19.3958 26.4746647,17.9336 26.9835471,17.1992 C28.2584059,16.4974 29.8422118,16.3022 31.3416059,16.0024 C33.1229353,15.646 34.9001647,15.1566 36.4646765,14.3496 C38.9449353,13.07 40.7501412,10.9188 40.6546353,8.489 C40.7925882,8.0042 40.8688,7.5018 40.8655311,6.9824 C40.7952412,6.2974 40.3177118,5.422 40.1189824,5.1196 L40.1189824,5.1196 Z" id="path-49"></path>
        <linearGradient x1="50.7395381%" y1="36.6128448%" x2="42.806218%" y2="61.2187481%" id="linearGradient-51">
            <stop stop-color="#373880" offset="0%"></stop>
            <stop stop-color="#333377" offset="100%"></stop>
        </linearGradient>
        <path d="M98.7444804,0.908 C98.6361201,0.634 98.5301155,0.356 98.4217552,0.074 L55.7725635,3.198 C58.2601386,10.072 60.3001386,17.616 57.2401386,18.154 C52.4251732,19 26.691963,19.706 19.2198152,20.55 C11.7500231,21.396 3.28143187,21.96 2.78438799,27.598 C2.76083141,27.87 2.7443418,28.282 2.73727483,28.806 L0.0447575058,98.054 C0.0447575058,98.054 13.7405543,102.258 22.4564896,98.054 L23.7026328,41.624 C32.9415242,40.166 86.9332102,44.344 94.7610624,39.158 C101.566559,34.646 104.555889,15.618 98.7444804,0.908" id="path-52"></path>
        <linearGradient x1="52.5362157%" y1="25.7780112%" x2="61.3415224%" y2="8.30437255%" id="linearGradient-54">
            <stop stop-color="#FFFFFE" offset="0%"></stop>
            <stop stop-color="#CCC9DB" offset="100%"></stop>
        </linearGradient>
        <path d="M56.7095238,62.508 C50.6928571,47.4388 46.0547619,18.333 42.95,13.3642 C41.5738095,11.1602 35.497619,7.4104 32.2071429,4.712 C34.5904762,2.7776 31.5333333,-1.0844 28.1238095,0.44 C22.5833333,2.9158 16.6571429,4.4766 10.45,5.2212 C8.68571429,5.4326 7.7547619,7.2988 8.16428571,8.6024 C8.55238095,9.8368 9.72142857,10.4376 11.0452381,10.5448 C7.98571429,16.1634 0.116666667,28.4898 0.116666667,30.0676 C0.116666667,31.9706 7.04047619,49.449 9.38809524,55.0874 C11.15,59.312 16.0166667,70.576 16.302381,76.318 C16.302381,76.318 43.6690476,82.132 59.8214286,78.868 C59.7428571,73.428 58.7833333,67.7 56.7095238,62.508" id="path-55"></path>
        <linearGradient x1="53.1364604%" y1="54.0812747%" x2="30.7679578%" y2="77.5012975%" id="linearGradient-57">
            <stop stop-color="#6DC1B5" offset="0%"></stop>
            <stop stop-color="#56B99F" offset="100%"></stop>
        </linearGradient>
        <path d="M119.511676,3.0148 C119.511676,3.0148 114.192865,-3.5138 100.894659,3.0148 C87.5940936,9.5434 70.4724756,21.5248 65.1536647,21.2428 C59.8348538,20.961 18.6075828,15.6046 15.614425,13.6312 C12.6236257,11.6578 5.97381481,9.7032 2.98160039,10.6804 C-0.0106140351,11.6578 -1.17438402,24.6258 2.15040351,24.3438 C5.47495517,24.062 17.2772904,23.2162 18.1099025,23.3572 C18.9401559,23.4982 62.6605458,37.1708 72.1353411,34.4926 C81.6101365,31.8146 119.511676,20.2562 120.509396,13.2084 C121.507115,6.1606 119.511676,3.0148 119.511676,3.0148" id="path-58"></path>
        <linearGradient x1="5.39942683e-05%" y1="50.0002842%" x2="100.000098%" y2="50.0002842%" id="linearGradient-60">
            <stop stop-color="#F0C8C9" offset="0%"></stop>
            <stop stop-color="#E691A5" offset="100%"></stop>
        </linearGradient>
        <path d="M0.0198461538,0.198974359 C13.1492582,19.1876923 37.0948242,31.8974359 64.4621978,31.8974359 C91.8286264,31.8974359 115.776319,19.1876923 128.905495,0.198974359 L0.0198461538,0.198974359" id="path-61"></path>
        <linearGradient x1="49.9996334%" y1="-0.62770983%" x2="49.9996334%" y2="81.162881%" id="linearGradient-63">
            <stop stop-color="#E46A90" offset="0%"></stop>
            <stop stop-color="#DF4C74" offset="100%"></stop>
        </linearGradient>
        <polyline id="path-64" points="6.58383529 66.8790828 0.0558823529 66.8790828 12.3437412 0.0396449704 18.8719176 0.997071006 6.58383529 66.8790828"></polyline>
        <linearGradient x1="49.999406%" y1="100%" x2="49.999406%" y2="-0.0002965687%" id="linearGradient-66">
            <stop stop-color="#AA7888" offset="0%"></stop>
            <stop stop-color="#855263" offset="100%"></stop>
        </linearGradient>
        <polyline id="path-67" points="12.4517059 66.6817994 0.163623529 0.994129794 6.69157647 0.0395280236 18.9796588 66.8972271 12.4517059 66.6817994"></polyline>
        <linearGradient x1="49.999406%" y1="100%" x2="49.999406%" y2="3.36073187e-14%" id="linearGradient-69">
            <stop stop-color="#AA7888" offset="0%"></stop>
            <stop stop-color="#855263" offset="100%"></stop>
        </linearGradient>
        <path d="M76.307929,84.8853488 L17.8054438,84.8853488 C16.0745562,84.8853488 14.6033136,83.8297674 14.3424852,82.4005814 C10.4807101,61.2355814 0.216568047,2.48595349 0.216568047,0.224755814 L7.22272189,0.224755814 C7.22272189,0.198662791 7.22295858,0.162488372 7.2191716,0.116627907 C7.4312426,2.77198837 14.3583432,43.6188372 20.8153846,79.034186 L76.307929,79.034186 C78.2426036,79.034186 79.8108876,80.3427907 79.8108876,81.9597674 C79.8108876,83.5747674 78.2426036,84.8853488 76.307929,84.8853488" id="path-70"></path>
        <linearGradient x1="50%" y1="100%" x2="50%" y2="0.000932770562%" id="linearGradient-72">
            <stop stop-color="#AA7888" offset="0%"></stop>
            <stop stop-color="#855263" offset="100%"></stop>
        </linearGradient>
        <polyline id="path-73" points="12.3701176 66.8394379 18.8971765 66.8394379 6.60976471 0 0.0827058824 0.957426036 12.3701176 66.8394379"></polyline>
        <linearGradient x1="50.0059404%" y1="100%" x2="50.0059404%" y2="-0.0002965687%" id="linearGradient-75">
            <stop stop-color="#AA7888" offset="0%"></stop>
            <stop stop-color="#855263" offset="100%"></stop>
        </linearGradient>
        <polyline id="path-76" points="6.99767442 66.6422714 19.7813953 0.95460177 12.9906977 0 0.206976744 66.8576991 6.99767442 66.6422714"></polyline>
        <linearGradient x1="49.9940596%" y1="100.00003%" x2="49.9940596%" y2="2.95613101e-05%" id="linearGradient-78">
            <stop stop-color="#AA7888" offset="0%"></stop>
            <stop stop-color="#855263" offset="100%"></stop>
        </linearGradient>
        <path d="M3.65341246,84.8438372 L62.3311573,84.8438372 C64.0664688,84.8438372 65.5430267,83.7882558 65.8041543,82.3590698 C69.6759644,61.1940698 79.9715134,2.44523256 79.9715134,0.184034884 L72.9448071,0.184034884 C72.9448071,0.15794186 72.9448071,0.121767442 72.947181,0.0759069767 C72.735905,2.73126744 65.7875371,43.5793023 59.3115727,78.9926744 L3.65341246,78.9926744 C1.71394659,78.9926744 0.140059347,80.3032558 0.140059347,81.9182558 C0.140059347,83.5332558 1.71394659,84.8438372 3.65341246,84.8438372" id="path-79"></path>
        <linearGradient x1="50.0014868%" y1="100%" x2="50.0014868%" y2="0%" id="linearGradient-81">
            <stop stop-color="#AA7888" offset="0%"></stop>
            <stop stop-color="#855263" offset="100%"></stop>
        </linearGradient>
    </defs>
    <g id="Page-1" stroke="none" stroke-width="1" fill="none" fill-rule="evenodd">
        <g id="Desktop" transform="translate(-498.000000, -1072.000000)">
            <g id="People-Eating-At-Restaurant-4" transform="translate(498.000000, 1072.000000)">
                <polygon id="Fill-1" points="0 399 472 399 472 0 0 0"></polygon>
                <path d="M60.6287923,63 C57.0660914,64.9162246 53.7923987,67.2275491 50.927622,69.965213 C44.9062222,75.7194938 41.1377625,82.605807 39,89.9214634 C40.5836329,86.8085247 42.593683,83.8389673 45.0954256,81.079676 C48.0460534,77.8255586 51.5683121,75.0894967 55.482222,72.8354447 C56.8009701,69.4051043 58.4950504,66.098921 60.6287923,63 M43.9623335,159.718377 C44.2250898,163.891657 44.3024267,168.076152 44.2068789,172.282674 C43.7844822,190.882809 41.0117057,209.553232 44.2189407,228.082677 C46.8086629,243.041605 53.3955445,258.246844 66.536197,268.898321 C73.8704323,274.841841 82.6676832,278.788835 92.0940355,281.316033 C86.4654694,279.397606 81.1488525,276.82435 76.3357532,273.438065 C62.7088478,263.851936 55.0808742,249.463731 51.3561678,235.07953 C46.7426782,217.26499 47.9280378,198.965235 46.8349148,180.87054 C46.404477,173.74112 45.469339,166.706218 43.9623335,159.718377 M407,229.472436 C406.236091,232.872738 405.651925,236.293066 405.252233,239.739426 C405.992492,245.979322 406.340153,252.321346 404.230535,258.354981 C403.823747,263.323267 402.89192,268.239487 400.470116,272.793249 C396.749903,279.7881 390.002435,284.882546 382.025145,288.332911 C373.915412,291.839348 364.928248,293.735747 356.052241,295.249663 C346.033918,296.959827 335.880788,298.025175 325.682722,298.533818 C321.420915,298.746087 317.156742,298.852221 312.890204,298.852221 C293.669499,298.852221 274.472444,296.705505 255.916315,292.530222 C242.265287,290.527688 228.832315,287.431771 215.859344,283.262496 C215.023064,282.994156 214.548873,282.529568 214.358487,282.000899 C208.190455,280.957579 201.934443,280.533042 195.652652,280.533042 C193.127259,280.533042 190.597845,280.603131 188.068195,280.727288 C177.029593,281.267972 166.106641,282.769872 155.161931,284.063509 C162.844773,283.596919 170.53211,283.176387 178.233636,283.176387 C178.94173,283.176387 179.648878,283.180392 180.357445,283.186399 C189.429987,283.282521 198.443639,284.071519 207.176561,286.098084 C207.326504,286.652785 207.772552,287.155421 208.606466,287.481834 C238.102811,299.030447 270.510996,305 302.968848,305 C311.918171,305 320.86986,304.545425 329.767152,303.630267 C340.06455,302.570927 350.272076,300.948874 360.295128,298.682006 C369.175865,296.673465 378.144109,294.274429 386.100114,290.287384 C393.926042,286.366423 400.384974,280.843435 403.632179,273.556215 C407.224679,265.498019 406.380359,256.610774 406.018507,248.182109 C405.746527,241.89215 406.087093,235.666273 407,229.472436" id="Fill-3" fill="#E7E5EC"></path>
                <path d="M107.292538,41 C93.1974503,41 78.9050433,44.5701728 68.7962231,53.1069423 C65.7129964,55.71056 63.1355765,58.6070247 61,61.7115227 C70.6549394,56.5136888 82.4360142,54.2263219 93.9466015,54.2263219 C96.391846,54.2263219 98.8250531,54.3295384 101.223092,54.5301706 C122.919209,56.3442616 142.473376,65.0450575 162.113929,72.3822346 C171.808049,76.0036156 181.731824,79.322548 192.087765,81.3140675 C198.464047,82.5400642 204.927187,83.124958 211.41629,83.124958 C212.45009,83.124958 213.484834,83.1101556 214.519343,83.0807509 C224.419043,81.3612751 233.970366,78.4514082 243.306432,75.1050714 C240.445779,75.395718 237.570965,75.5991507 234.682933,75.6983666 C233.40036,75.7423736 232.119203,75.7645772 230.839934,75.7645772 C222.522562,75.7645772 214.284731,74.8250265 206.270183,72.8333069 C196.233115,70.3391068 186.716488,66.5619008 177.447925,62.4992491 C158.669108,54.2685286 140.074157,44.7015938 118.876058,41.7935273 C115.092774,41.2746441 111.199737,41 107.292538,41 M371.634564,57.1403894 C377.842086,59.6307889 383.726251,62.7158838 389.117118,66.3230625 C400.762713,72.1714008 410.937857,80.1598823 418.481295,89.6912114 C429.52738,103.651851 433.299099,120.405139 432.01747,137.015404 C430.56118,155.886431 423.5134,173.889519 416.98016,191.830197 C413.701739,200.833642 410.555492,209.893095 408.374599,219.140579 C407.678318,222.089052 407.109492,225.041525 406.672841,228 C407.310115,225.165545 408.067763,222.347093 408.948145,219.534642 C411.761593,210.557202 415.507349,201.815799 419.380559,193.134407 C427.096297,175.835631 435.324214,158.502851 438.11878,140.026687 C440.578186,123.764078 438.078655,107.099004 428.224508,92.8021105 C419.847894,80.6461603 407.286512,70.6317538 392.65517,64.0076911 C385.926027,60.9610023 378.882967,58.671235 371.634564,57.1403894" id="Fill-4" fill="#E7E5EC"></path>
                <path d="M93.1442003,55 C81.6150532,55 69.8149824,57.2866443 60.1444753,62.482836 C58.011602,65.5773546 56.3182112,68.8788411 55,72.3043082 C65.1073892,66.4892128 77.8209406,63.8876175 90.0070657,63.8878175 C90.6843747,63.8878175 91.3614473,63.8958162 92.0347374,63.9118137 C113.293257,64.4161353 133.024109,71.7325972 152.729428,77.7198658 C162.455491,80.6750061 172.380373,83.3229942 182.618496,84.6565868 C186.875022,85.2111005 191.145024,85.4792588 195.41479,85.4792588 C200.607256,85.4792588 205.798304,85.0821206 210.953181,84.320439 C211.943494,84.1742618 212.92837,84.0156864 213.911355,83.845313 C212.875178,83.8747084 211.838765,83.8895061 210.803298,83.8895061 C204.303732,83.8895061 197.830171,83.304797 191.443608,82.0791877 C181.070969,80.0882974 171.131193,76.7704135 161.421442,73.1501766 C141.74922,65.8153176 122.163523,57.1172706 100.432424,55.3037527 C98.0305181,55.1031839 95.5933876,55 93.1442003,55 M388.790654,67.0929189 C394.294233,70.7677472 399.284807,74.9852912 403.592161,79.6677628 C415.469301,92.5863532 420.495336,108.638056 420.589899,124.844135 C420.698647,143.256271 415.296723,161.149088 410.391256,178.951919 C407.930249,187.885929 405.601629,196.866532 404.225735,205.974315 C402.871117,214.950919 402.705631,223.887529 403.845118,232.886129 C404.098074,234.893817 404.384128,236.9275 404.627628,238.971182 C405.027158,235.529718 405.611086,232.114249 406.374684,228.718777 C406.812039,225.761237 407.381782,222.809696 408.079186,219.862155 C410.263596,210.617593 413.414915,201.561002 416.698623,192.560402 C423.242397,174.625392 430.301541,156.627991 431.760179,137.762926 C433.043874,121.157909 429.266074,104.409914 418.202178,90.453685 C410.646577,80.9253672 400.455026,72.9394094 388.790654,67.0929189 M403.606346,257.560291 C403.596889,257.586287 403.587433,257.612283 403.577977,257.638278 C401.012949,264.897149 395.187855,270.626258 387.904124,274.883596 C380.499824,279.212922 371.984407,282.05848 363.520999,284.522097 C353.972478,287.299664 344.189914,289.465328 334.274961,291.089075 C320.660222,293.318728 306.813803,294.424556 292.969748,294.424556 C280.366836,294.424556 267.768652,293.508699 255.352502,291.686982 C273.901076,295.856333 293.090317,298 312.303198,298 C316.567999,298 320.830436,297.894016 325.090508,297.682049 C335.284423,297.174128 345.43342,296.110294 355.447664,294.40256 C364.320058,292.890795 373.303563,290.997089 381.409995,287.495634 C389.384038,284.05017 396.128759,278.962961 399.847458,271.978048 C402.268276,267.430755 403.199724,262.521519 403.606346,257.560291" id="Fill-5" fill="#D8D6E3"></path>
                <path d="M331.227972,50 C325.056907,50 318.862253,50.529181 312.700624,51.5825619 C294.564864,54.6841282 277.74305,61.34093 261.065134,67.8915369 C254.695915,70.3929929 248.272441,72.9376839 241.742812,75.2699853 C254.712428,73.9575926 267.420198,70.8635974 279.906226,67.5980566 C295.35276,62.6600969 311.006883,58.0154181 327.453621,56.2071175 C330.628794,55.8580493 333.796891,55.6418741 336.95791,55.5581934 C338.347343,55.4386495 339.741494,55.3382326 341.138005,55.2587359 C343.303539,55.1354064 345.461996,55.0738413 347.613377,55.0738413 C355.211618,55.0738413 362.710783,55.8425086 370,57.376456 C367.695287,56.4553703 365.348112,55.6163714 362.963193,54.8622487 C352.682803,51.6116509 341.994311,50 331.227972,50 M37.963914,88.7146886 C32.3623043,99.6983816 32.1028177,112.487984 34.2365058,124.20229 C35.9262359,133.480091 38.8834404,142.54112 41.34361,151.682841 C41.9234448,153.83742 42.4461925,155.995985 42.9135044,158.158334 C42.5773513,152.826677 41.9364192,147.513748 40.9654672,142.200818 C39.2266706,132.687117 36.9712595,123.226214 36.0328613,113.620463 C35.2331706,105.4335 35.5926776,96.8098026 37.963914,88.7146886 M90.9216065,279.140541 C101.442612,282.716896 113.054169,284 124.483613,284 C125.199561,284 125.9148,283.996015 126.629096,283.986053 C135.762556,283.860532 144.802364,282.938052 153.827546,281.874111 C152.91321,281.927906 151.999345,281.985685 151.084772,282.041473 C142.508502,282.565473 133.933882,283.089474 125.341807,283.089474 C122.569309,283.089474 119.794925,283.035679 117.018182,282.908166 C108.21427,282.505701 99.3178877,281.385974 90.9216065,279.140541" id="Fill-6" fill="#E7E5EC"></path>
                <path d="M337.964922,56 C334.797023,56.0837735 331.622032,56.3001883 328.439948,56.6496435 C311.957417,58.4599487 296.269224,63.1097764 280.789073,68.0532102 C283.096438,67.4502405 285.399075,66.8410875 287.692256,66.2363227 C304.15351,61.8966564 320.754247,57.4795994 337.964922,56 M54.7958851,72.1748659 C50.8835298,74.4199955 47.3626701,77.1452269 44.4132143,80.3864632 C41.9124653,83.134832 39.9032136,86.0926346 38.3202097,89.1932511 C35.9438126,97.297339 35.5835232,105.930596 36.3849544,114.126635 C37.3253948,123.743034 39.5857144,133.214425 41.3282953,142.738673 C42.3013604,148.057492 42.9436874,153.376311 43.2805722,158.713879 C44.7869791,165.67406 45.7217457,172.681114 46.1520126,179.782314 C47.2447013,197.805382 46.0598125,216.032699 50.6714697,233.776722 C54.3946967,248.103984 62.0196405,262.435234 75.6411335,271.983418 C80.452321,275.356298 85.7668262,277.919368 91.3931567,279.830201 C99.8077112,282.078123 108.723456,283.199092 117.546527,283.602003 C120.329314,283.729658 123.109736,283.783512 125.888267,283.783512 C134.499042,283.783512 143.092323,283.258931 151.687259,282.734349 C152.603822,282.6785 153.519675,282.620656 154.436002,282.566802 C165.376365,281.278286 176.294978,279.782331 187.329196,279.243787 C189.857841,279.120121 192.38625,279.05031 194.91064,279.05031 C201.189936,279.05031 207.443463,279.473167 213.609046,280.512357 C213.799356,281.038933 214.273359,281.501682 215.109306,281.768959 C228.077125,285.921731 241.504761,289.005393 255.150368,291 C238.436154,287.254128 222.236133,281.8647 206.993338,274.919479 C206.197581,274.556461 205.79521,274.039857 205.68788,273.49134 C197.252758,271.055925 188.452145,269.817274 179.543493,269.25679 C173.555928,268.879809 167.559615,268.782073 161.55881,268.782073 C158.374599,268.782073 155.187787,268.809998 152.003103,268.835928 C148.81771,268.863852 145.634207,268.891777 142.450705,268.891777 C134.414644,268.891777 126.384966,268.718246 118.381529,267.928382 C100.056651,266.125257 81.5563575,261.128767 68.7254208,249.394494 C56.5814927,238.286528 51.20623,223.059699 49.7414313,208.275673 C47.9274545,189.968771 52.0003324,171.829816 53.7580436,153.638602 C54.6660958,144.241809 54.6793348,134.908046 53.663243,125.518035 C52.6405317,116.065194 51.1052828,106.637485 50.877856,97.1351775 C50.6795077,88.8469873 51.7100205,80.1724418 54.7958851,72.1748659 M404.426971,238.418172 C404.107817,241.134827 403.906868,243.867438 403.82176,246.619996 C403.720104,250.020801 403.68937,253.503384 403.405678,256.960038 C405.514458,250.950288 405.166935,244.633367 404.426971,238.418172" id="Fill-7" fill="#D8D6E3"></path>
                <path d="M349.026564,56 C346.869034,56 344.704408,56.0612583 342.532684,56.1839732 C341.132182,56.2630737 339.734047,56.3629901 338.340642,56.4819383 C339.341338,56.4557697 340.339669,56.4424871 341.337999,56.4424871 C354.690078,56.4424871 367.824511,58.7964712 380.156968,63.5175236 C383.182714,64.6756822 386.135123,65.9696399 389,67.3918634 C383.596714,63.8168765 377.698994,60.7593141 371.477171,58.2911398 C364.167121,56.7648367 356.646522,56 349.026564,56 M281.125896,68.4618021 C268.604183,71.7110693 255.860092,74.7896458 242.853407,76.0954984 C233.495833,79.4119713 223.922506,82.2958694 214,84 C216.194908,83.938147 218.391708,83.8112689 220.587562,83.6219431 C239.22677,82.0131693 257.005096,76.1791586 274.374154,70.6181339 C276.621581,69.8982993 278.871373,69.177077 281.125896,68.4618021" id="Fill-8" fill="#D8D6E3"></path>
                <path d="M341.591707,55 C340.594338,55 339.596968,55.0133768 338.597235,55.039731 C321.391431,56.5207598 304.795393,60.9420837 288.338797,65.2859422 C286.046265,65.8912913 283.74428,66.5010327 281.437568,67.1045848 C279.185214,67.8249342 276.937588,68.5512732 274.692325,69.2762146 C257.339988,74.8766914 239.578776,80.7520909 220.957511,82.372278 C218.763771,82.562947 216.569085,82.6907252 214.376291,82.753017 C213.393574,82.9231217 212.408968,83.0814468 211.418925,83.2273934 C206.265455,83.9878732 201.075826,84.3843848 195.884778,84.3843848 C191.616178,84.3843848 187.347343,84.1166496 183.091979,83.5630108 C172.856652,82.2315224 162.934481,79.5877124 153.211074,76.6372349 C133.511137,70.6594132 113.785675,63.3544955 92.5329612,62.8509697 C91.859855,62.8349974 91.1829673,62.8270113 90.5058433,62.8270113 C78.3230466,62.8268116 65.6129676,65.424302 55.508339,71.2302222 C52.4233477,79.2355239 51.3931266,87.9184491 51.5914187,96.2146458 C51.8187811,105.726133 53.3535956,115.162949 54.3760175,124.624922 C55.3918217,134.024004 55.3785864,143.366783 54.4707912,152.772654 C52.7135775,170.981441 48.6418523,189.137919 50.4553157,207.462505 C51.9196998,222.260813 57.2934412,237.502351 69.4339324,248.621048 C82.2612378,260.366656 100.756296,265.367973 119.075987,267.172839 C127.077159,267.963467 135.104565,268.137165 143.138352,268.137165 C146.320953,268.137165 149.503554,268.109214 152.688046,268.081262 C155.871829,268.055307 159.057739,268.027356 162.241049,268.027356 C168.240155,268.027356 174.234771,268.125186 180.220642,268.502531 C189.126773,269.063557 197.924895,270.303404 206.357629,272.741172 C206.464929,273.290219 206.867186,273.807321 207.662718,274.17069 C222.901199,281.122621 239.096636,286.517255 255.806119,290.266745 C268.218878,292.085588 280.813621,293 293.413091,293 C307.253365,293 321.096002,291.895917 334.707022,289.669782 C344.619267,288.048596 354.399159,285.88635 363.945072,283.113165 C372.406168,280.653435 380.91926,277.812368 388.321537,273.489872 C395.60328,269.239252 401.426783,263.519183 403.991109,256.271765 C404.000563,256.24581 404.010017,256.219855 404.01947,256.1939 C404.303083,252.733907 404.333807,249.247959 404.435435,245.843869 C404.520519,243.088653 404.721411,240.353402 405.040474,237.634123 C404.79704,235.593665 404.511065,233.56319 404.258177,231.55867 C403.119002,222.574269 403.284442,213.651759 404.63869,204.689319 C406.014209,195.595907 408.342192,186.629474 410.802528,177.70956 C415.706655,159.934819 421.107103,142.070234 421,123.68715 C420.903848,107.506641 415.879186,91.4802654 404.00529,78.5820584 C399.699112,73.9069749 394.709901,69.6960856 389.207825,66.0270555 C386.345706,64.5947422 383.396139,63.2916047 380.373307,62.1252296 C368.052722,57.3706842 354.930932,55 341.591707,55" id="Fill-9" fill="#D2CFDE"></path>
                <path d="M396.605746,310.965584 C390.689237,308.238553 383.532741,308.820909 377.047018,308.895209 C369.994445,308.973526 362.939509,309.053851 355.886936,309.132168 C327.563271,309.451459 299.239607,309.768743 270.915942,310.088034 C263.974377,310.166351 257.032812,310.244668 250.091246,310.322984 C249.729879,310.324993 249.399216,310.371179 249.094533,310.441464 C224.397063,309.92136 199.70101,309.403264 175.00472,308.88316 C146.551625,308.282732 118.098293,307.684311 89.6449613,307.085891 C79.1900996,306.864997 66.2883303,306.45534 59.6441258,314.728806 C53.6775446,322.160868 58.6495381,332.171361 66.2092073,337.217773 C76.4753548,344.071496 90.4463472,342.422828 102.460994,341.033207 C108.151236,340.374542 113.932882,339.848414 119.673903,340.322331 C125.33651,340.790224 130.090975,342.699949 134.375189,345.824588 C139.033997,349.222331 143.614627,352.310824 149.77134,353.411276 C155.672497,354.467548 161.75977,354.007688 167.581568,352.810847 C179.734621,350.312742 190.419294,344.087561 202.807118,342.27021 C214.839716,340.50507 225.573279,345.808523 234.577946,352.039728 C244.212527,358.704687 253.21129,366.502228 265.157679,370.122874 C270.861619,371.853875 277.042659,372.472377 283.030024,371.620933 C288.830802,370.795595 293.899396,368.203108 297.973639,364.658771 C301.89436,361.250987 304.934099,357.190563 308.913867,353.828965 C312.695237,350.63605 317.303265,348.212246 322.19708,346.441081 C344.037384,338.539118 369.148892,342.183861 390.71758,333.382259 C395.845221,331.291803 401.478305,328.42822 403.433941,323.608725 C405.462796,318.612515 401.771178,313.347217 396.605746,310.965584" id="Fill-10" fill="#3E3D66"></path>
                <path d="M210.14267,160.00381 C209.510571,159.95628 208.953197,160.35897 208.898211,160.903036 L208.025257,169.520723 C207.787222,171.86931 209.252562,174.006945 211.539631,175.031772 C212.386032,175.411 212.866098,176.206469 212.783149,177.024794 L212.266426,182.124859 C212.139067,183.381875 211.025023,184.399623 209.573076,184.582866 C209.389791,184.606125 209.223424,184.707658 209.15434,184.855708 C209.012647,185.159091 209.251857,185.464496 209.597279,185.490385 L211.907846,185.66392 L214.052281,185.824915 L216.362848,185.998248 C216.683831,186.022316 216.962754,185.795386 216.938081,185.506565 C216.922337,185.321097 216.76302,185.163945 216.558117,185.104887 C215.171495,184.705028 214.283737,183.539432 214.410862,182.285854 L214.927585,177.185587 C215.010298,176.367465 215.642866,175.655526 216.552947,175.408168 C219.011552,174.739513 220.884584,172.85227 221.12262,170.503683 L221.995574,161.886199 C222.050794,161.34193 221.582947,160.862383 220.950614,160.814853 L210.14267,160.00381" id="Fill-11" fill="#FFFFFE"></path>
                <path d="M209.631287,164 L209.019978,170.087038 C208.770353,172.57385 210.889006,174.765646 213.752393,174.982648 C216.615561,175.199461 219.139065,173.359299 219.388691,170.872297 L220,164.78507 L209.631287,164" id="Fill-12" fill="#DF4C74"></path>
                <path d="M224.02528,152.532916 C223.356472,152.621907 222.905077,153.124723 223.017047,153.656272 L224.787982,162.073058 C225.270508,164.367057 227.449907,166.097983 230.133675,166.591421 C231.127095,166.773991 231.870466,167.431843 232.038422,168.230961 L233.086572,173.212235 C233.344907,174.440144 232.508144,175.648699 231.063077,176.131962 C230.88056,176.193018 230.73997,176.325306 230.714614,176.481539 C230.662143,176.801386 231.00433,177.042418 231.369614,176.993733 L233.813875,176.669097 L234.947886,176.518252 L236.081897,176.367607 L238.525406,176.042572 C238.866839,175.997478 239.082746,175.721727 238.969772,175.450965 C238.894455,175.277174 238.68106,175.160648 238.45009,175.147878 C236.891044,175.060284 235.612426,174.135461 235.354594,172.910944 L234.306694,167.929471 C234.138488,167.130352 234.572059,166.316069 235.436689,165.88648 C237.772244,164.726012 239.125425,162.525792 238.640891,160.231792 L236.87096,151.815006 C236.757986,151.283457 236.126334,150.924702 235.457777,151.013493 L224.02528,152.532916" id="Fill-13" fill="#FFFFFE"></path>
                <path d="M225,155.584344 L226.210888,161.988322 C226.705527,164.604683 229.504993,166.370923 232.463272,165.933488 C235.421778,165.495852 237.418765,163.020339 236.925036,160.403978 L235.713465,154 L225,155.584344" id="Fill-14" fill="#DF4C74"></path>
                <g id="Group-17" transform="translate(192.000000, 207.000000)">
                    <mask id="mask-2" fill="white">
                        <use xlink:href="#path-1"></use>
                    </mask>
                    <g id="Clip-16"></g>
                    <path d="M56.9485714,44.469309 C56.8086253,46.0361572 56.7137466,47.6050039 56.6781671,49.1738506 L31.3640539,49.1738506 C31.329186,47.6050039 31.2352561,46.0361572 31.0931752,44.469309 L56.9485714,44.469309 Z M72.1884636,73.7357942 C64.8875472,55.6790684 66.5289488,35.5438705 76.6904582,18.4964026 L85.2224259,4.18092645 L75.3621563,0.00799412324 L66.8301887,14.3254688 C62.3566577,21.8279535 59.3537466,29.8600488 57.8309434,38.076009 L30.211752,38.076009 C28.6894232,29.8600488 25.6855633,21.8279535 21.2134555,14.3254688 L12.6805391,0.00799412324 L2.82074394,4.18092645 L11.3536604,18.4964026 C21.5144582,35.5438705 23.1549111,55.6790684 15.8542318,73.7357942 L0.178371968,110.115051 L11.4981132,110.115051 L26.2984798,76.7335904 C29.0732075,69.8706356 30.6996658,62.7398777 31.2060809,55.5671506 L56.8370889,55.5671506 C57.3423181,62.7398777 58.9694879,69.8706356 61.74469,76.7335904 L76.5457682,110.115051 L87.8647978,110.115051 L72.1884636,73.7357942 L72.1884636,73.7357942 Z" id="Fill-15" fill="url(#linearGradient-3)" mask="url(#mask-2)"></path>
                </g>
                <g id="Group-20" transform="translate(244.000000, 179.000000)">
                    <mask id="mask-5" fill="white">
                        <use xlink:href="#path-4"></use>
                    </mask>
                    <g id="Clip-19"></g>
                    <path d="M68.3783662,0.0570202703 C68.3783662,0.0570202703 62.6663662,20.49575 60.6645634,21.1856757 C58.6627606,21.8773649 28.6451831,24.3619595 22.476507,24.0856757 C16.3054648,23.8093919 6.6324507,22.8864865 2.96484507,24.1072297 C-0.705126761,25.3299324 -0.298140845,27.7302703 1.53802817,28.0065541 C3.37183099,28.2828378 69.3366761,30.1619595 71.1704789,27.814527 C73.0066479,25.4670946 83.8461972,5.45023649 83.8461972,5.45023649 L67.668507,0.0570202703" id="Fill-18" fill="url(#linearGradient-6)" mask="url(#mask-5)"></path>
                </g>
                <g id="Group-23" transform="translate(279.000000, 179.000000)">
                    <mask id="mask-8" fill="white">
                        <use xlink:href="#path-7"></use>
                    </mask>
                    <g id="Clip-22"></g>
                    <path d="M33.2343689,0.0777278912 C32.6896602,2.01402041 28.5912621,16.4080816 26.3363107,20.2230612 C22.7778641,20.2350952 19.2217961,20.2471293 15.6657282,20.2593605 C12.0834951,20.2713946 7.89470874,19.8004898 4.45757282,20.8239728 C2.35009709,21.4521088 0.371067961,22.8784354 0.0737378641,24.8078231 C-0.197427184,26.5517687 0.982378641,28.2029932 2.90669903,28.7908844 C2.91145631,28.8086395 2.91383495,28.8283673 2.91859223,28.8480952 C2.98519417,28.8480952 3.04941748,28.850068 3.11364078,28.850068 C3.27300971,28.8914966 3.43475728,28.9270068 3.60364078,28.9546259 C3.91762136,29.0019728 4.19354369,28.9605442 4.42427184,28.8638776 C20.5395631,29.0335374 35.2728641,28.8717687 36.1030097,27.8064626 C37.948835,25.4430612 48.8453883,5.29003401 48.8453883,5.29003401 L33.2343689,0.0777278912" id="Fill-21" fill="url(#linearGradient-9)" mask="url(#mask-8)"></path>
                </g>
                <g id="Group-26" transform="translate(274.000000, 236.000000)">
                    <mask id="mask-11" fill="white">
                        <use xlink:href="#path-10"></use>
                    </mask>
                    <g id="Clip-25"></g>
                    <path d="M31.7012143,9.12198068 C31.7012143,9.12198068 25.7235,60.2431643 30.0417857,67.1658454 C34.3600714,74.0905314 32.3682857,82.8676812 32.3682857,82.8676812 L0.139071429,82.5509179 C0.139071429,82.5509179 8.44564286,54.3088647 8.778,53.0357971 C9.11035714,51.7647343 19.5760714,0.192463768 19.5760714,0.192463768 L31.7012143,9.12198068" id="Fill-24" fill="url(#linearGradient-12)" mask="url(#mask-11)"></path>
                </g>
                <g id="Group-29" transform="translate(276.000000, 299.000000)">
                    <mask id="mask-14" fill="white">
                        <use xlink:href="#path-13"></use>
                    </mask>
                    <g id="Clip-28"></g>
                    <path d="M0.0375757576,19.5722772 L30.3706061,19.8693069 C30.3706061,19.8693069 32.3550758,11.2 28.0526515,4.36039604 C27.5195455,3.51485149 27.1461364,2.0019802 26.897197,0.00198019802 L9.10742424,1.43366337 L0.0375757576,19.5722772" id="Fill-27" fill="url(#linearGradient-15)" mask="url(#mask-14)"></path>
                </g>
                <g id="Group-32" transform="translate(251.000000, 131.000000)">
                    <mask id="mask-17" fill="white">
                        <use xlink:href="#path-16"></use>
                    </mask>
                    <g id="Clip-31"></g>
                    <path d="M73.7990038,11.6657585 C73.7990038,11.6657585 76.9726437,17.6538771 76.3265134,20.1863008 C75.6803831,22.7189237 64.2543295,40.1935636 64.2543295,42.0885 C64.2543295,43.9834364 71.1622222,61.3877754 73.5044444,67.0022839 C75.8490421,72.6169915 83.7166284,90.7219492 78.8635249,91.5643644 C74.008046,92.4067797 48.0583142,93.1097881 40.523295,93.9502119 C32.9906513,94.7926271 24.4508046,95.3542373 23.9495785,100.968347 C23.445977,106.582458 26.6267433,169.60428 25.6242912,172.412331 C24.6194636,175.21839 16.7495019,181.39411 12.8988506,182.097119 C9.04819923,182.798136 1.51555556,183.359746 0.510727969,185.044576 C-0.494099617,186.727415 0.510727969,187.115763 5.3662069,187.553898 C10.2216858,187.992034 39.5184674,187.958178 40.8582375,187.553898 C42.1980077,187.149619 44.1363985,178.026441 40.6895785,172.551737 C37.2451341,167.079025 41.6944061,119.917712 43.7040613,115.426822 C44.9155556,112.720339 108.143678,118.075551 116.700153,112.479364 C123.562912,107.986483 126.577395,89.0391102 120.717088,74.3914407 C114.714253,59.3860932 110.21272,31.1404873 106.989195,25.4558771 C105.478391,22.7908178 97.0739464,18.0478008 94.7483525,15.4357161 C92.4227586,12.8236314 87.0945594,0.133033898 87.0945594,0.133033898 L73.7990038,11.6657585" id="Fill-30" fill="url(#linearGradient-18)" mask="url(#mask-17)"></path>
                </g>
                <path d="M157.628967,157.304344 C157.031023,155.986463 155.157836,154.713291 155.615524,153.14851 C155.805887,152.497021 155.316312,152.030608 154.722205,151.87856 C154.615036,151.802033 154.493481,151.73336 154.345074,151.683415 C150.450532,150.371577 145.654999,150.850477 143.185066,153.976011 C140.630981,157.207879 142.628121,160.656842 145.187481,163.372352 C146.277636,164.528921 147.541612,166.043355 149.498474,165.99905 C151.311963,165.957967 153.569714,164.757697 154.919522,163.849036 C156.450342,162.818738 157.642153,161.427955 157.930575,159.767112 C158.079222,158.911618 157.99387,158.108081 157.628967,157.304344" id="Fill-33" fill="#2F2F6B"></path>
                <path d="M162.84198,130.283075 C162.325696,127.799186 160.586212,125.780331 158.140784,124.434839 C158.089301,124.404166 158.036847,124.375552 157.981479,124.350437 C157.856658,124.284151 157.731594,124.217658 157.60313,124.154666 C156.393772,123.561793 155.290051,124.807031 155.833776,125.632318 C154.658902,128.02913 154.825735,130.577659 155.713083,133.108072 C156.311448,134.814022 157.597787,137.848583 160.444635,136.775854 C163.01027,135.809143 163.248499,132.239967 162.84198,130.283075" id="Fill-34" fill="#2F2F6B"></path>
                <g id="Group-37" transform="translate(137.000000, 182.000000)">
                    <mask id="mask-20" fill="white">
                        <use xlink:href="#path-19"></use>
                    </mask>
                    <g id="Clip-36"></g>
                    <path d="M19.1635645,10.2680556 C19.1635645,10.2680556 30.252361,17.8234127 32.7363266,17.8234127 C35.2202923,17.8234127 65.1925845,21.1785714 71.3195587,20.4801587 C77.446533,19.7797619 77.2096963,19.9484127 80.3444928,21.9563492 C83.4790544,23.9623016 81.5864756,25.1170635 77.6121777,24.9781746 C73.6378797,24.8373016 30.4797994,24.8551587 29.952086,24.9742063 C29.4243725,25.0952381 10.7123954,21.4583333 3.26073352,14.7464286 C-4.19092837,8.0343254 4.25436676,0.0634920635 4.25436676,0.0634920635 L19.1635645,10.2680556" id="Fill-35" fill="url(#linearGradient-21)" mask="url(#mask-20)"></path>
                </g>
                <g id="Group-40" transform="translate(137.000000, 182.000000)">
                    <mask id="mask-23" fill="white">
                        <use xlink:href="#path-22"></use>
                    </mask>
                    <g id="Clip-39"></g>
                    <path d="M47.80152,19.0674603 C40.632,18.4265873 34.51416,17.8234127 33.43896,17.8234127 C30.90192,17.8234127 19.57488,10.2680556 19.57488,10.2680556 L4.34568,0.0634920635 C4.34568,0.0634920635 -4.28088,8.0343254 3.33072,14.7464286 C10.94232,21.4583333 30.05592,25.0952381 30.59496,24.9742063 C30.80976,24.9265873 38.41512,24.8928571 47.74488,24.8769841 C47.89488,22.8849206 47.86104,20.6547619 47.80152,19.0674603" id="Fill-38" fill="url(#linearGradient-24)" mask="url(#mask-23)"></path>
                </g>
                <g id="Group-43" transform="translate(150.000000, 240.000000)">
                    <mask id="mask-26" fill="white">
                        <use xlink:href="#path-25"></use>
                    </mask>
                    <g id="Clip-42"></g>
                    <path d="M1.37973427,1.65781327 C1.37973427,1.65781327 4.56360839,8.10995086 3.89335664,9.9329484 C3.2231049,11.7559459 -1.13388811,22.4172973 0.374475524,30.8317445 C1.88236364,39.2481818 8.9206014,55.7984521 5.40148252,59.7270516 C1.88236364,63.6536609 0.54186014,68.1414988 4.89885315,69.2639558 C9.25560839,70.3864128 15.4557343,72.6313268 17.8017343,77.2604668 C20.1477343,81.8876167 26.0126154,80.9064619 29.1964895,80.9064619 C32.3803636,80.9064619 37.4073706,79.4337346 30.3693706,75.0155528 C25.8117063,72.1536855 18.0005035,66.4598034 16.995007,60.1469779 C15.9702517,53.714742 15.4557343,7.96864865 15.4557343,7.96864865 L7.57986014,0.115429975 L1.37973427,1.65781327" id="Fill-41" fill="url(#linearGradient-27)" mask="url(#mask-26)"></path>
                </g>
                <g id="Group-46" transform="translate(85.000000, 151.000000)">
                    <mask id="mask-29" fill="white">
                        <use xlink:href="#path-28"></use>
                    </mask>
                    <g id="Clip-45"></g>
                    <path d="M53.8423226,0.0716848989 C53.8423226,0.0716848989 52.4509066,5.90020333 48.4732411,7.53009156 C42.0698014,10.1542354 32.0072869,23.1697111 29.7618115,31.9865565 C27.5165722,40.8034019 22.901017,52.139346 19.2834771,56.9686445 C15.6659372,61.7959572 3.19157216,66.2042806 0.572047538,77.5408205 C-2.04747708,88.8773603 5.68649236,95.2793579 18.4103022,94.7551249 C31.1341121,94.2289061 70.1784805,92.2352319 73.4217351,93.704673 C76.6649898,95.1741141 77.5384007,104.620238 80.4073701,110.289501 C83.2763396,115.956778 96.3744346,124.878668 100.740309,131.072164 C105.106419,137.263674 110.220864,145.661332 109.347689,148.600214 C108.474514,151.539096 106.478484,154.898954 110.71999,155.842176 C114.961024,156.787384 120.824039,158.362069 121.946659,160.147241 C123.069514,161.930428 124.233669,166.513496 132.217083,166.829227 C133.848504,166.892771 135.146703,166.930499 136.179409,166.950982 C138.235618,166.990071 139.542076,165.131427 138.534385,163.622271 C137.480912,162.0456 135.933032,160.3756 133.904435,159.863282 C130.034382,158.886302 117.830229,145.242342 117.455944,143.876159 C117.081659,142.511962 87.9752003,80.8291914 82.4864703,79.3597503 C76.9977402,77.8903092 44.1073667,75.755648 44.2319711,73.0272533 C44.3568115,70.2988585 53.4628455,50.4594174 56.5814958,49.516195 C59.700146,48.5707883 75.6141121,43.2851688 75.0434805,36.8148621 C74.2550272,27.8745042 70.0121053,14.6326552 66.0202801,11.6937729 C62.028691,8.75469203 64.565146,6.79556956 66.3114958,1.4424352 L53.8423226,0.0716848989" id="Fill-44" fill="url(#linearGradient-30)" mask="url(#mask-29)"></path>
                </g>
                <g id="Group-49" transform="translate(306.000000, 107.000000)">
                    <mask id="mask-32" fill="white">
                        <use xlink:href="#path-31"></use>
                    </mask>
                    <g id="Clip-48"></g>
                    <path d="M22.2481928,0.0950585106 C22.2481928,0.0950585106 6.69156627,-0.399521277 4.05542169,13.7529787 C3.90361446,14.5756383 3.77831325,15.3754681 3.6746988,16.1567979 C2.65301205,18.2146277 -0.414457831,24.5197819 0.214457831,24.9494149 C0.845783133,25.3806223 2.94457831,25.590617 3.60240964,25.6469043 C4.51807229,32.4021596 7.47710843,36.2269362 9.5373494,36.732734 C12.6,37.4845426 35.2963855,36.0002128 38.8987952,21.6148883 C42.5036145,7.22956383 36.9807229,0.324734043 22.2481928,0.0950585106" id="Fill-47" fill="url(#linearGradient-33)" mask="url(#mask-32)"></path>
                </g>
                <g id="Group-52" transform="translate(307.000000, 106.000000)">
                    <mask id="mask-35" fill="white">
                        <use xlink:href="#path-34"></use>
                    </mask>
                    <g id="Clip-51"></g>
                    <path d="M26.3975758,1.70925373 C21.6290909,0.141094527 19.1490909,0.0431840796 13.9684848,0.419303483 C12.6036364,0.51840796 11.2848485,0.733134328 10.0290909,1.06348259 C9.3430303,1.2439801 8.59636364,1.2199005 7.95636364,0.951044776 C7.95151515,0.949452736 7.94909091,0.948059701 7.94424242,0.946666667 C5.97333333,0.118208955 3.91030303,-0.51761194 1.77939394,0.821094527 C-0.555151515,2.28935323 -0.283636364,6.17472637 1.84727273,7.9160199 C2.0169697,8.05373134 2.15757576,8.21253731 2.26909091,8.38487562 C3.6969697,10.5818905 4.63515152,9.53930348 7.46666667,9.70845771 C9.64606061,9.83880597 11.5345455,10.159801 13.1248485,11.4746269 C14.6133333,12.7058706 15.7987879,14.3060697 16.8387879,15.8061692 C19.0763636,19.0290547 19.8715152,22.8465672 16.6254545,25.8284577 C15.1975758,27.1410945 13.1587879,27.9536318 11.0375758,28.160796 C8.87030303,28.3725373 6.92606061,27.6362189 4.79272727,27.6109453 C3.27272727,27.5930348 2.09212121,27.4899502 1.85454545,28.7733333 C1.56121212,30.3715423 2.04848485,31.2033831 2.81939394,32.4975124 C3.86909091,34.2541294 4.65939394,36.0583085 5.86181818,37.7454726 C6.68848485,38.9024876 6.92848485,39.2155224 8.61818182,39.6376119 C10.5648485,40.1245771 12.4145455,39.919005 14.0412121,39.1804975 C16.0048485,38.2901493 17.2412121,38.241194 19.0181818,37.1132338 C22.1042424,35.1530348 24.6545455,32.6220896 25.7066667,29.4929353 C26.3757576,27.5050746 26.3806061,25.4477612 26.710303,23.4177114 C26.8193939,22.7544279 26.950303,21.7247761 27.7381818,21.358607 C28.8678788,20.8350249 29.9224242,22.0977114 30.2981818,22.8202985 C31.9515152,26.0041791 30.5818182,30.1464677 34.6472727,32.3560199 C35.4181818,32.7753234 36.790303,32.4437811 36.6036364,31.5168159 C35.7284848,27.1406965 39.2072727,23.3822886 39.6266667,19.2167164 C40.0339394,15.1870647 39.7309091,10.6718408 36.7830303,7.48199005 C33.8084848,4.2640796 30.889697,3.18606965 26.3975758,1.70925373" id="Fill-50" fill="url(#linearGradient-36)" mask="url(#mask-35)"></path>
                </g>
                <g id="Group-55" transform="translate(131.000000, 122.000000)">
                    <mask id="mask-38" fill="white">
                        <use xlink:href="#path-37"></use>
                    </mask>
                    <g id="Clip-54"></g>
                    <path d="M28.7241805,12.6564497 C28.9209023,10.069432 28.3729248,7.92119527 27.4753233,6.16586982 C25.1650075,1.64789349 19.3554211,-0.744378698 13.7726241,0.337183432 C-2.57416541,3.50360947 -0.657293233,16.2719172 1.58915789,23.5487219 C4.09945865,31.6795503 17.5040451,34.0690059 22.7763759,33.8026391 C26.8082406,33.5988402 27.8482556,29.0997751 28.2312105,23.4630178 C28.9831353,23.408497 30.8387068,23.0336923 30.8941805,22.3486627 C30.9449925,21.7247929 29.1584135,18.1958343 28.5041504,16.927574 C28.5556617,15.4883077 28.6183609,14.0504497 28.7241805,12.6564497" id="Fill-53" fill="url(#linearGradient-39)" mask="url(#mask-38)"></path>
                </g>
                <g id="Group-58" transform="translate(85.000000, 205.000000)">
                    <mask id="mask-41" fill="white">
                        <use xlink:href="#path-40"></use>
                    </mask>
                    <g id="Clip-57"></g>
                    <path d="M96.724378,46.9503583 C96.7425951,46.9362215 96.7629415,46.9220847 96.7806854,46.9099674 C90.7728366,35.4086645 85.2253829,25.8239088 82.9248268,24.6606515 C82.8230951,24.5435179 82.6825634,24.4405212 82.4909293,24.3577199 C77.500161,22.2210423 71.6300049,21.5788274 66.1883049,20.7609121 C58.7966683,19.6501629 49.1364146,17.9436482 47.401061,10.5339414 C47.367939,10.3925733 47.3073732,10.2774593 47.2335585,10.1764821 C47.7578317,8.98697068 48.3272927,7.7429316 48.9230146,6.49485342 C38.6561561,5.01250814 27.0847659,2.04175896 20.4066707,0.195895765 C20.0411463,0.783583062 19.6817732,1.32078176 19.3318634,1.79537459 C15.7052463,6.70488599 3.19958049,11.1882736 0.573482927,22.7178502 C-2.05261463,34.2474267 5.70076098,40.7584365 18.4564976,40.2252769 C26.5616756,39.8859935 45.3176902,38.9428664 58.7529,38.6843648 C64.6486073,43.6342671 64.6859878,51.8760261 63.3663146,58.6354397 C63.2243634,59.3644951 63.9182683,60.2510749 64.9048293,59.9481433 C68.678839,58.7970033 71.6910439,63.1147883 75.7943805,61.4365472 C78.8416,60.1904886 79.8359683,57.3530293 83.5427878,57.0601954 C86.442378,56.8299674 89.3064805,56.9773941 91.3063366,54.8427362 C93.0670049,52.9625407 93.2832439,49.7272313 96.036861,48.6528339 C96.4669732,48.4852117 96.6557683,48.2065147 96.6780073,47.9136808 C96.8552098,47.6269055 96.8987415,47.279544 96.724378,46.9503583" id="Fill-56" fill="url(#linearGradient-42)" mask="url(#mask-41)"></path>
                </g>
                <g id="Group-61" transform="translate(102.000000, 154.000000)">
                    <mask id="mask-44" fill="white">
                        <use xlink:href="#path-43"></use>
                    </mask>
                    <g id="Clip-60"></g>
                    <path d="M56.7621074,33.5877476 C55.9751777,24.5540065 51.7404545,11.1738447 47.756343,8.20426537 C47.7205413,8.17737864 47.6920413,8.15169579 47.6571818,8.12521036 C49.8406116,6.98814239 49.2211488,3.21176052 45.8426033,2.91721036 C41.3999008,2.52955987 37.0905124,1.58591586 32.9191488,0.238368932 C29.8244256,-0.761255663 28.1273802,2.38730097 29.488314,4.35424595 C23.0892397,7.65950809 13.7228678,20.1427767 11.567938,28.7090097 C9.32703719,37.6179482 4.72040083,49.0722977 1.10985124,53.9520388 C0.852644628,54.2991586 0.545975207,54.6442718 0.205859504,54.9893851 C6.33971901,57.4994822 19.4838719,62.3130097 29.0725909,61.8615534 C32.0415372,55.2020712 36.3747149,47.0216828 38.3357975,46.4217476 C41.4484215,45.466466 57.3316364,40.1256375 56.7621074,33.5877476" id="Fill-59" fill="url(#linearGradient-45)" mask="url(#mask-44)"></path>
                </g>
                <g id="Group-64" transform="translate(129.000000, 163.000000)">
                    <mask id="mask-47" fill="white">
                        <use xlink:href="#path-46"></use>
                    </mask>
                    <g id="Clip-63"></g>
                    <path d="M2.70117187,1.7854 C2.70117187,1.7854 10.134375,-3.289 15.255,3.7588 C20.3758594,10.8066 34.2510937,29.5538 39.3717187,30.2586 C44.4923438,30.9634 72.4082812,15.7402 75.0513281,13.3438 C77.694375,10.9476 84.9623437,10.3838 86.28375,11.2294 C87.6051562,12.0752 91.7348437,18.7002 89.0917969,20.2506 C86.4489844,21.8012 80.1719531,22.0832 78.3548437,21.3784 C76.5379687,20.6736 48.6220313,44.496 37.0591406,41.676 C26.1602344,39.018 -0.767578125,12.3572 0.058359375,7.7056 C0.8840625,3.0542 2.70117187,1.7854 2.70117187,1.7854" id="Fill-62" fill="url(#linearGradient-48)" mask="url(#mask-47)"></path>
                </g>
                <path d="M223.650092,315.734916 C222.588841,314.188383 221.029535,312.550304 218.985962,312.047778 C218.824302,312.008823 218.643148,311.938703 218.454148,311.858844 C217.170853,312.46655 215.336249,312.427594 213.600068,312.427594 C210.416554,312.427594 194.247935,301 194.247935,301 C193.368314,303.882707 191.357549,307.178341 195.630366,308.103534 C199.902708,309.030675 205.809005,310.575261 206.939912,312.32631 C208.071057,314.075412 209.243805,318.570876 217.286154,318.880572 C218.929619,318.942901 220.237401,318.979908 221.277731,318.999386 C223.349119,319.038342 224.665222,317.215225 223.650092,315.734916" id="Fill-65" fill="#55649F"></path>
                <polyline id="Fill-66" fill="#55649F" points="194 306 199.51266 318 202 318 199.690343 306.236129 194 306"></polyline>
                <path d="M168.756097,317.31376 C171.118777,321.882942 177.025356,320.914079 180.231866,320.914079 C183.438377,320.914079 188.501125,319.459802 181.413086,315.09697 C180.296758,314.409136 178.986234,313.556222 177.627819,312.569672 C176.545971,313.402934 175.201205,314.112385 173.65027,314.265674 C169.431114,314.680339 156.267683,300 156.267683,300 C152.723544,303.877418 151.37351,308.309033 155.76148,309.417428 C160.149211,310.525823 166.393418,312.742613 168.756097,317.31376" id="Fill-67" fill="#55649F"></path>
                <polyline id="Fill-68" fill="#55649F" points="153 307 155.409947 322 158.613389 322 159 308.106459 153 307"></polyline>
                <path d="M184.428926,194.780253 C183.089836,192.162544 181.886237,188.37214 177.804245,188.465787 C173.941787,188.554421 172.225553,191.833876 169.252641,193.273877 C168.781678,193.344062 168.380323,193.363914 168.068366,193.3206 C162.982055,192.613935 149.199803,173.817125 144.11326,166.750675 C139.02695,159.684225 131.643559,164.772053 131.643559,164.772053 C131.643559,164.772053 129.838627,166.04421 129.018457,170.707919 C128.198054,175.371828 154.945415,202.10318 165.771285,204.768214 C168.246228,205.377822 171.478251,204.740139 175.039693,203.380551 C178.019822,203.208096 181.106808,202.849149 183.612481,201.894629 C187.540124,200.398681 185.734261,197.331787 184.428926,194.780253" id="Fill-69" fill="#F5D744"></path>
                <g id="Group-72" transform="translate(119.000000, 122.000000)">
                    <mask id="mask-50" fill="white">
                        <use xlink:href="#path-49"></use>
                    </mask>
                    <g id="Clip-71"></g>
                    <path d="M33.6291647,15.0028 C32.7315059,15.276 31.7438882,15.4484 30.7545824,15.6312 C31.1334706,15.5006 31.5123588,15.3698 31.8893176,15.2356 C33.5695941,14.6366 35.2580706,14.0064 36.7352765,13.0992 C38.0747706,12.2764 39.2073353,11.2492 39.9460588,10.0678 C39.1714,12.431 36.4210235,14.1534 33.6291647,15.0028 Z M25.5244294,35.7438 C25.1467471,37.0896 25.1667647,38.6236 26.0366882,39.7544 C23.3188706,37.6994 25.7947882,32.7666 27.1157118,29.7064 C27.0713353,31.7336 26.0979471,33.7018 25.5244294,35.7438 Z M13.489,42.3748 C11.4107824,42.7862 9.13841765,42.4838 7.30451176,41.5808 C6.03688824,40.9568 4.81774118,39.9118 4.34720588,38.7218 C5.12717059,39.3038 5.98382941,39.8084 6.76982353,40.2256 C8.39969412,41.0906 10.1626941,41.6416 12.1159824,41.3722 C13.1889765,41.2244 14.1751471,40.81 15.2358412,40.6294 C16.2429941,40.4578 17.1348647,40.5588 17.9828412,40.7944 C16.3606882,41.226 14.6411,42.1468 13.489,42.3748 Z M0.567970588,25.4562 C0.444247059,23.323 2.89339412,22.252 4.70462941,21.139 C3.00192353,22.7824 0.601011765,24.6666 2.61869412,26.8754 C3.06872941,27.3682 3.68734706,27.73 4.19164706,28.1794 C4.57053529,28.5172 4.78542353,28.8598 4.87465882,29.2014 C3.11792941,28.0936 0.697,27.6734 0.567970588,25.4562 Z M40.1189824,5.1196 C36.8657529,0.7846 28.8244471,-0.3112 23.2158882,0.3738 C16.3659941,1.2104 8.60686471,4.9346 7.23288235,11.0108 C6.56265294,13.9746 7.38771765,17.1928 5.72625294,19.8736 C4.99765882,20.4106 4.22854706,20.9148 3.41867647,21.392 C2.05192941,22.1972 0.569658824,23.0822 0.161347059,24.5152 C-0.196317647,25.7712 0.343194118,27.1168 1.50614706,27.9626 C2.26537059,28.5148 3.85858235,29.0616 4.9077,29.7854 C4.8298,30.3654 4.43837059,30.9326 3.90054706,31.4572 C3.06487059,32.272 2.09871765,32.994 1.84282941,34.0934 C1.47551765,35.6704 2.37510588,37.0444 3.66829412,38.174 C3.99653529,40.3228 6.68179412,42.106 9.12804706,42.6866 C10.8748882,43.1012 12.7905529,43.0804 14.5017,42.5618 C15.5843412,42.2334 17.2590706,41.2842 18.7348294,41.0386 C19.4672824,41.3086 20.1821294,41.6524 20.9273647,41.9794 C23.0863765,42.9268 27.3180588,43.623 28.2786647,41.0176 C28.3172529,40.9136 28.2979588,40.8258 28.2528588,40.7518 C28.208,40.6546 28.1153882,40.5728 27.9525941,40.5414 C27.8648059,40.5244 27.7869059,40.5014 27.7032176,40.4818 C24.4671118,39.008 26.1543824,35.526 26.9362765,33.2796 C27.4680706,31.751 27.8076471,30.1624 27.5614059,28.608 C27.5937235,28.5194 27.6248353,28.4322 27.6518471,28.3502 C28.6532118,25.3024 28.3802,22.882 26.9263882,20.032 C26.6017647,19.3958 26.4746647,17.9336 26.9835471,17.1992 C28.2584059,16.4974 29.8422118,16.3022 31.3416059,16.0024 C33.1229353,15.646 34.9001647,15.1566 36.4646765,14.3496 C38.9449353,13.07 40.7501412,10.9188 40.6546353,8.489 C40.7925882,8.0042 40.8688,7.5018 40.8655311,6.9824 C40.7952412,6.2974 40.3177118,5.422 40.1189824,5.1196 L40.1189824,5.1196 Z" id="Fill-70" fill="url(#linearGradient-51)" mask="url(#mask-50)"></path>
                </g>
                <path d="M253.517132,319.665254 C258.661283,320.130098 289.706728,320.092674 291.125239,319.665254 C292.546093,319.235865 294.600002,309.548994 290.94939,303.736477 C290.679756,303.309057 290.457015,302.633458 290.274132,301.758921 L275.186342,300 C275.172274,301.959829 275.108968,303.23224 274.982358,303.586782 C273.917889,306.568872 265.580331,313.125927 261.500649,313.870465 C257.418622,314.615003 249.43745,315.211815 248.372981,317.000281 C247.308512,318.788748 248.372981,319.198441 253.517132,319.665254" id="Fill-73" fill="#373880"></path>
                <g id="Group-76" transform="translate(272.000000, 204.000000)">
                    <mask id="mask-53" fill="white">
                        <use xlink:href="#path-52"></use>
                    </mask>
                    <g id="Clip-75"></g>
                    <path d="M98.7444804,0.908 C98.6361201,0.634 98.5301155,0.356 98.4217552,0.074 L55.7725635,3.198 C58.2601386,10.072 60.3001386,17.616 57.2401386,18.154 C52.4251732,19 26.691963,19.706 19.2198152,20.55 C11.7500231,21.396 3.28143187,21.96 2.78438799,27.598 C2.76083141,27.87 2.7443418,28.282 2.73727483,28.806 L0.0447575058,98.054 C0.0447575058,98.054 13.7405543,102.258 22.4564896,98.054 L23.7026328,41.624 C32.9415242,40.166 86.9332102,44.344 94.7610624,39.158 C101.566559,34.646 104.555889,15.618 98.7444804,0.908" id="Fill-74" fill="url(#linearGradient-54)" mask="url(#mask-53)"></path>
                </g>
                <g id="Group-79" transform="translate(314.000000, 143.000000)">
                    <mask id="mask-56" fill="white">
                        <use xlink:href="#path-55"></use>
                    </mask>
                    <g id="Clip-78"></g>
                    <path d="M56.7095238,62.508 C50.6928571,47.4388 46.0547619,18.333 42.95,13.3642 C41.5738095,11.1602 35.497619,7.4104 32.2071429,4.712 C34.5904762,2.7776 31.5333333,-1.0844 28.1238095,0.44 C22.5833333,2.9158 16.6571429,4.4766 10.45,5.2212 C8.68571429,5.4326 7.7547619,7.2988 8.16428571,8.6024 C8.55238095,9.8368 9.72142857,10.4376 11.0452381,10.5448 C7.98571429,16.1634 0.116666667,28.4898 0.116666667,30.0676 C0.116666667,31.9706 7.04047619,49.449 9.38809524,55.0874 C11.15,59.312 16.0166667,70.576 16.302381,76.318 C16.302381,76.318 43.6690476,82.132 59.8214286,78.868 C59.7428571,73.428 58.7833333,67.7 56.7095238,62.508" id="Fill-77" fill="url(#linearGradient-57)" mask="url(#mask-56)"></path>
                </g>
                <g id="Group-82" transform="translate(228.000000, 152.000000)">
                    <mask id="mask-59" fill="white">
                        <use xlink:href="#path-58"></use>
                    </mask>
                    <g id="Clip-81"></g>
                    <path d="M119.511676,3.0148 C119.511676,3.0148 114.192865,-3.5138 100.894659,3.0148 C87.5940936,9.5434 70.4724756,21.5248 65.1536647,21.2428 C59.8348538,20.961 18.6075828,15.6046 15.614425,13.6312 C12.6236257,11.6578 5.97381481,9.7032 2.98160039,10.6804 C-0.0106140351,11.6578 -1.17438402,24.6258 2.15040351,24.3438 C5.47495517,24.062 17.2772904,23.2162 18.1099025,23.3572 C18.9401559,23.4982 62.6605458,37.1708 72.1353411,34.4926 C81.6101365,31.8146 119.511676,20.2562 120.509396,13.2084 C121.507115,6.1606 119.511676,3.0148 119.511676,3.0148" id="Fill-80" fill="url(#linearGradient-60)" mask="url(#mask-59)"></path>
                </g>
                <path d="M347.71092,154.853898 C347.71092,154.853898 342.342135,148.432627 328.918981,154.853898 C315.493447,161.27517 298.210958,173.059598 292.842172,172.782234 C292.804079,172.780267 292.756462,172.777119 292.715988,172.774562 C285.475866,170.449426 277.892903,168.403227 270.255181,167.327606 C263.200764,166.3348 261.248478,171.931061 261.010394,176.723557 C260.896114,179.025284 261.71036,181.307537 264.138813,182.628655 C266.917249,184.142158 270.767061,184.549745 273.943096,185.184732 C281.773666,186.749969 289.792321,187.740611 297.763361,186.302646 C297.994302,186.26114 298.170483,186.180488 298.310953,186.078394 C298.906162,186.022725 299.439469,185.938139 299.889447,185.81421 C309.453266,183.180236 347.71092,171.811853 348.718014,164.879918 C349.725107,157.947982 347.71092,154.853898 347.71092,154.853898" id="Fill-83" fill="#6EC1B4"></path>
                <path d="M310.855919,213 L163.142899,213 C161.959518,213 161,212.258544 161,211.343595 L161,207.654579 C161,206.741456 161.959518,206 163.142899,206 L310.855919,206 C312.040246,206 313,206.741456 313,207.654579 L313,211.343595 C313,212.258544 312.040246,213 310.855919,213" id="Fill-84" fill="#AA7888"></path>
                <g id="Group-87" transform="translate(171.000000, 205.000000)">
                    <mask id="mask-62" fill="white">
                        <use xlink:href="#path-61"></use>
                    </mask>
                    <g id="Clip-86"></g>
                    <path d="M0.0198461538,0.198974359 C13.1492582,19.1876923 37.0948242,31.8974359 64.4621978,31.8974359 C91.8286264,31.8974359 115.776319,19.1876923 128.905495,0.198974359 L0.0198461538,0.198974359" id="Fill-85" fill="url(#linearGradient-63)" mask="url(#mask-62)"></path>
                </g>
                <g id="Group-90" transform="translate(70.000000, 250.000000)">
                    <mask id="mask-65" fill="white">
                        <use xlink:href="#path-64"></use>
                    </mask>
                    <g id="Clip-89"></g>
                    <polyline id="Fill-88" fill="url(#linearGradient-66)" mask="url(#mask-65)" points="6.58383529 66.8790828 0.0558823529 66.8790828 12.3437412 0.0396449704 18.8719176 0.997071006 6.58383529 66.8790828"></polyline>
                </g>
                <g id="Group-93" transform="translate(122.000000, 250.000000)">
                    <mask id="mask-68" fill="white">
                        <use xlink:href="#path-67"></use>
                    </mask>
                    <g id="Clip-92"></g>
                    <polyline id="Fill-91" fill="url(#linearGradient-69)" mask="url(#mask-68)" points="12.4517059 66.6817994 0.163623529 0.994129794 6.69157647 0.0395280236 18.9796588 66.8972271 12.4517059 66.6817994"></polyline>
                </g>
                <g id="Group-96" transform="translate(60.000000, 168.000000)">
                    <mask id="mask-71" fill="white">
                        <use xlink:href="#path-70"></use>
                    </mask>
                    <g id="Clip-95"></g>
                    <path d="M76.307929,84.8853488 L17.8054438,84.8853488 C16.0745562,84.8853488 14.6033136,83.8297674 14.3424852,82.4005814 C10.4807101,61.2355814 0.216568047,2.48595349 0.216568047,0.224755814 L7.22272189,0.224755814 C7.22272189,0.198662791 7.22295858,0.162488372 7.2191716,0.116627907 C7.4312426,2.77198837 14.3583432,43.6188372 20.8153846,79.034186 L76.307929,79.034186 C78.2426036,79.034186 79.8108876,80.3427907 79.8108876,81.9597674 C79.8108876,83.5747674 78.2426036,84.8853488 76.307929,84.8853488" id="Fill-94" fill="url(#linearGradient-72)" mask="url(#mask-71)"></path>
                </g>
                <path d="M67,171.215264 C67,171.215264 71.9785205,169.824295 73.1509154,174.113997 C74.3230728,178.4037 82.248501,235.674804 84.1104562,241.442772 C84.7926504,243.555435 132.434088,240.5997 134.44384,243.690965 C136.453354,246.780236 135.941768,248 135.941768,248 L80.2313828,248 L67,171.215264" id="Fill-97" fill="#DF4C74"></path>
                <g id="Group-100" transform="translate(369.000000, 252.000000)">
                    <mask id="mask-74" fill="white">
                        <use xlink:href="#path-73"></use>
                    </mask>
                    <g id="Clip-99"></g>
                    <polyline id="Fill-98" fill="url(#linearGradient-75)" mask="url(#mask-74)" points="12.3701176 66.8394379 18.8971765 66.8394379 6.60976471 0 0.0827058824 0.957426036 12.3701176 66.8394379"></polyline>
                </g>
                <g id="Group-103" transform="translate(316.000000, 253.000000)">
                    <mask id="mask-77" fill="white">
                        <use xlink:href="#path-76"></use>
                    </mask>
                    <g id="Clip-102"></g>
                    <polyline id="Fill-101" fill="url(#linearGradient-78)" mask="url(#mask-77)" points="6.99767442 66.6422714 19.7813953 0.95460177 12.9906977 0 0.206976744 66.8576991 6.99767442 66.6422714"></polyline>
                </g>
                <g id="Group-106" transform="translate(318.000000, 169.000000)">
                    <mask id="mask-80" fill="white">
                        <use xlink:href="#path-79"></use>
                    </mask>
                    <g id="Clip-105"></g>
                    <path d="M3.65341246,84.8438372 L62.3311573,84.8438372 C64.0664688,84.8438372 65.5430267,83.7882558 65.8041543,82.3590698 C69.6759644,61.1940698 79.9715134,2.44523256 79.9715134,0.184034884 L72.9448071,0.184034884 C72.9448071,0.15794186 72.9448071,0.121767442 72.947181,0.0759069767 C72.735905,2.73126744 65.7875371,43.5793023 59.3115727,78.9926744 L3.65341246,78.9926744 C1.71394659,78.9926744 0.140059347,80.3032558 0.140059347,81.9182558 C0.140059347,83.5332558 1.71394659,84.8438372 3.65341246,84.8438372" id="Fill-104" fill="url(#linearGradient-81)" mask="url(#mask-80)"></path>
                </g>
                <path d="M391,172.215267 C391,172.215267 386.021939,170.824283 384.850491,175.11403 C383.676667,179.403776 375.752164,236.674676 373.889253,242.442705 C373.207294,244.557383 325.567609,241.599624 323.557375,244.69092 C321.547141,247.780223 322.058016,249 322.058016,249 L377.769526,249 L391,172.215267" id="Fill-107" fill="#DF4C74"></path>
                <path d="M213,203 L196,203 L196.048415,203.034836 C199.593151,205.598361 204.030905,207 208.609735,207 L217.390497,207 C221.969327,207 226.40708,205.598361 229.951585,203.034836 L230,203 L213,203" id="Fill-108" fill="#FFFFFE"></path>
                <path d="M250.999073,203 L234,203 L234.048415,203.034836 C237.593383,205.598361 242.031832,207 246.609272,207 L255.391192,207 C259.968632,207 264.40708,205.598361 267.951353,203.034836 L268,203 L250.999073,203" id="Fill-109" fill="#FFFFFE"></path>
            </g>
        </g>
    </g>
</svg>